Coordinates
version=1
nRows=29
nColumns=24
inDegrees=yes

Units are S.I. units (second, meters, Newtons, ...)
Angles are in degrees.

endheader
time	pelvis_tilt	pelvis_list	pelvis_rotation	pelvis_tx	pelvis_ty	pelvis_tz	hip_flexion_r	hip_adduction_r	hip_rotation_r	knee_angle_r	ankle_angle_r	subtalar_angle_r	mtp_angle_r	hip_flexion_l	hip_adduction_l	hip_rotation_l	knee_angle_l	ankle_angle_l	subtalar_angle_l	mtp_angle_l	lumbar_extension	lumbar_bending	lumbar_rotation
      3.81000000	     -9.18910893	     -1.87619355	     11.99593514	     -1.12815371	     -0.04645929	      0.58760067	     36.39758707	     -4.73623520	    -26.95821631	    -12.32173080	      1.08349687	      9.86169988	      3.28135541	     -7.24326536	     -0.28207611	      7.20676472	    -12.24255893	     17.43577162	     16.17408105	     -0.66864321	      4.73783949	     -0.60203971	    -14.94685142
      3.81500000	     -9.19065126	     -2.14401155	     12.12657102	     -1.12064816	     -0.04767985	      0.58741383	     36.44426876	     -4.57576623	    -27.11817120	    -12.94225784	      0.55946805	      9.51882095	      3.28469467	     -7.33244232	     -0.71168052	      6.85544945	    -12.91070934	     17.56876042	     16.97920282	     -0.38882838	      4.88287080	     -0.23410829	    -14.98264962
      3.82000000	     -9.20022208	     -2.44792398	     12.22047695	     -1.11310208	     -0.04886111	      0.58725679	     36.51815905	     -4.37686696	    -27.20488936	    -13.61970991	     -0.13764019	      8.94147109	      3.40699088	     -7.37449094	     -1.18115732	      6.40407766	    -13.63940111	     17.66596564	     17.85595262	     -0.06499996	      5.05025888	      0.17763610	    -14.95793617
      3.82500000	     -9.20533703	     -2.77372775	     12.28592068	     -1.10555082	     -0.04996671	      0.58712267	     36.61264206	     -4.16050762	    -27.26017177	    -14.36793886	     -0.96107454	      8.19292219	      3.51681289	     -7.38622514	     -1.67524811	      5.92974343	    -14.42255667	     17.69511457	     18.72995697	      0.30488632	      5.21807961	      0.62346655	    -14.90201592
      3.83000000	     -9.20342491	     -3.12347326	     12.32175567	     -1.09800458	     -0.05098685	      0.58701610	     36.72741962	     -3.92022897	    -27.25125160	    -15.18315470	     -1.87416261	      7.27134329	      3.55409260	     -7.36090629	     -2.19972578	      5.39588140	    -15.27424511	     17.65430160	     19.64307890	      0.75163422	      5.38259251	      1.10529976	    -14.79571822
      3.83500000	     -9.22794208	     -3.55248949	     12.41694870	     -1.09044755	     -0.05190170	      0.58676606	     36.87440540	     -3.67377776	    -27.31118640	    -16.03982976	     -2.82035480	      6.31298093	      3.41224948	     -7.24906413	     -2.78887439	      5.11967085	    -16.19421937	     17.54025612	     20.32409923	      1.13593086	      5.60323583	      1.66963284	    -14.75117128
      3.84000000	     -9.21385018	     -3.94581725	     12.41393881	     -1.08296643	     -0.05273067	      0.58675252	     37.03104771	     -3.37727419	    -27.12020230	    -16.97032463	     -3.79665208	      4.97285874	      3.16742644	     -7.11170537	     -3.38331581	      4.44025526	    -17.24203658	     17.35304219	     21.41827844	      1.71410425	      5.75140441	      2.20543500	    -14.60098108
      3.84500000	     -9.20391823	     -4.34431289	     12.37259836	     -1.07546690	     -0.05347506	      0.58675978	     37.21751851	     -3.06570731	    -26.87654435	    -17.96930308	     -4.70721823	      3.60499773	      2.82623182	     -6.93570489	     -3.98225250	      3.77115060	    -18.35288358	     17.03298692	     22.45720446	      2.40098019	      5.90614382	      2.75600804	    -14.39868961
      3.85000000	     -9.19043547	     -4.72078063	     12.16608858	     -1.06789777	     -0.05417291	      0.58694635	     37.44355990	     -2.67323948	    -26.44984634	    -19.04654991	     -5.54617411	      2.21893527	      2.36775676	     -6.76184511	     -4.57025899	      2.81040325	    -19.50250090	     16.53512676	     23.60121201	      3.43685593	      6.04671139	      3.31218811	    -14.04095172
      3.85500000	     -9.18174396	     -5.10719354	     12.06335754	     -1.06042165	     -0.05475373	      0.58708961	     37.66048973	     -2.31357887	    -26.02651389	    -20.12891843	     -6.24070175	      0.78331006	      1.80393351	     -6.48594241	     -5.18900958	      2.06801840	    -20.77478681	     15.88648812	     24.71375887	      4.65733042	      6.18454125	      3.85279460	    -13.71152254
      3.86000000	     -9.19408208	     -5.52231324	     11.97250830	     -1.05294421	     -0.05523179	      0.58719346	     37.88307309	     -1.91757684	    -25.57142223	    -21.17816066	     -6.87379727	     -0.64479738	      1.27711664	     -6.10801131	     -5.84181867	      1.33710578	    -22.18499164	     15.09545373	     25.73704070	      5.71733225	      6.35541973	      4.42082237	    -13.53147461
      3.86500000	     -9.13104845	     -5.80520814	     11.76107065	     -1.04553821	     -0.05558915	      0.58754806	     38.03539322	     -1.52121282	    -24.91426065	    -22.26555125	     -7.29340055	     -1.92532732	      0.75817741	     -5.82751686	     -6.40220808	      0.44317699	    -23.56602716	     13.93636638	     26.84353469	      7.74906816	      6.37641253	      4.87088384	    -13.10825652
      3.87000000	     -9.13270259	     -6.16486426	     11.59955509	     -1.03810032	     -0.05592673	      0.58786402	     38.21379991	     -1.06149981	    -24.32101259	    -23.24716011	     -7.67217406	     -3.22399987	      0.48224187	     -5.37307957	     -7.04733578	     -0.31209859	    -25.13106283	     12.75127537	     27.91453568	      9.22047823	      6.49697754	      5.37761647	    -12.78672410
      3.87500000	     -9.18434999	     -6.57614342	     11.46579802	     -1.03062542	     -0.05622763	      0.58815903	     38.39852613	     -0.55470118	    -23.80216926	    -24.13046177	     -7.96387447	     -4.38025558	      0.35929467	     -4.77422926	     -7.76083078	     -1.00114212	    -26.85190155	     11.46396254	     28.97221232	     10.27641107	      6.69433295	      5.91871781	    -12.55849129
      3.88000000	     -9.10779864	     -6.80972196	     11.24718429	     -1.02332842	     -0.05627772	      0.58867313	     38.41254664	     -0.07431755	    -23.06742793	    -24.94738958	     -8.18966598	     -5.58616104	      0.58021219	     -4.34838067	     -8.32217188	     -1.70927543	    -28.44985556	      9.65074732	     29.79563168	     12.63807719	      6.65738176	      6.29997296	    -12.15324146
      3.88500000	     -9.12071822	     -7.11145197	     11.06243033	     -1.01597228	     -0.05636092	      0.58916590	     38.46681916	      0.44141451	    -22.49682234	    -25.66433841	     -8.30607722	     -6.59061593	      0.84949895	     -3.71821142	     -8.96967747	     -2.36667081	    -30.25410405	      7.85896514	     30.67320484	     13.99160452	      6.75151381	      6.72229194	    -11.85441278
      3.89000000	     -9.10842926	     -7.37834537	     10.88309713	     -1.00871469	     -0.05635743	      0.58969831	     38.44137555	      0.95627461	    -21.91060327	    -26.28418560	     -8.31019484	     -7.50267788	      1.31984370	     -3.06140890	     -9.59650350	     -2.94721570	    -32.09890305	      5.87658358	     31.36352006	     15.47837346	      6.79209405	      7.10576969	    -11.56413718
      3.89500000	     -9.07734958	     -7.61474418	     10.70354651	     -1.00146021	     -0.05623133	      0.59018769	     38.32750106	      1.44682100	    -21.40550487	    -26.80277603	     -8.18073308	     -8.18001879	      2.03795914	     -2.39175859	    -10.19664057	     -3.47604458	    -33.94605158	      3.69339570	     31.81651405	     16.99376643	      6.80824867	      7.46331095	    -11.28421919
      3.90000000	     -9.07545952	     -7.87205739	     10.54130316	     -0.99437710	     -0.05610029	      0.59077660	     38.21874154	      1.97188814	    -20.94199896	    -27.25910952	     -8.03732007	     -8.95665087	      2.36396113	     -1.58638546	    -10.82147166	     -3.89015410	    -35.94223576	      1.60904063	     32.11239576	     17.69840583	      6.83471004	      7.82090624	    -11.02590555
      3.90500000	     -9.06272956	     -8.09561522	     10.39620353	     -0.98728450	     -0.05581699	      0.59133385	     38.02121894	      2.46561032	    -20.52767646	    -27.60162586	     -7.80209345	     -9.61600745	      2.81018310	     -0.76310990	    -11.40941774	     -4.22978006	    -37.89355443	     -0.63717270	     32.16128048	     18.47883785	      6.85439694	      8.13733562	    -10.81307669
      3.91000000	     -9.02777168	     -8.31522484	     10.26965809	     -0.98038463	     -0.05551155	      0.59192342	     37.77725043	      2.93924940	    -20.20622377	    -27.90661910	     -7.46642792	    -10.09360301	      3.25275980	      0.12488772	    -12.00700955	     -4.53585198	    -39.91826438	     -2.80826051	     31.98828942	     19.06750959	      6.82102040	      8.44040511	    -10.60721209
      3.91500000	     -8.92815814	     -8.52901308	     10.15614266	     -0.97345494	     -0.05502665	      0.59234279	     37.39606180	      3.39785191	    -19.98631840	    -28.13630348	     -6.95531142	    -10.27339369	      3.43097325	      0.96975460	    -12.55919943	     -4.72301289	    -41.94203233	     -4.82810011	     31.40419324	     18.96933123	      6.73599734	      8.76491601	    -10.39610085
      3.92000000	     -8.96249364	     -8.80709437	     10.06221693	     -0.96667076	     -0.05462955	      0.59297329	     37.13186945	      3.91129722	    -19.77935133	    -28.25075685	     -6.62725957	    -10.75975015	      3.74179310	      2.07131530	    -13.20330983	     -4.88947366	    -43.99211431	     -6.85901274	     30.79956814	     19.31354274	      6.79670338	      9.09853422	    -10.26892346
      3.92500000	     -8.83265440	     -9.02039024	      9.94684325	     -0.95998094	     -0.05397880	      0.59345408	     36.64428759	      4.38607280	    -19.59859465	    -28.33109691	     -6.11500838	    -10.83945492	      3.90080760	      2.98763718	    -13.74457625	     -5.00721337	    -46.00300035	     -8.62371126	     29.76112828	     19.11405409	      6.64850365	      9.41633001	    -10.05456672
      3.93000000	     -8.74462802	     -9.27399733	      9.84912976	     -0.95334724	     -0.05332066	      0.59392770	     36.16345997	      4.88054093	    -19.48481402	    -28.32553933	     -5.62260739	    -10.92195609	      4.04265370	      4.01224388	    -14.32048294	     -5.08545497	    -48.01053849	    -10.19395092	     28.60063647	     18.90783989	      6.55921496	      9.76409644	     -9.88491099
      3.93500000	     -8.74605605	     -9.58522096	      9.81925024	     -0.94678807	     -0.05269547	      0.59435312	     35.75015645	      5.36080253	    -19.52275839	    -28.24267913	     -5.18745330	    -11.01375729	      4.26574323	      5.22615141	    -14.92448225	     -5.02838034	    -50.01627938	    -11.55527096	     27.33308836	     18.76096230	      6.59608854	     10.13377543	     -9.82541402
      3.94000000	     -8.62875306	     -9.83387331	      9.68738910	     -0.94024171	     -0.05186550	      0.59479698	     35.16351943	      5.87381750	    -19.41938895	    -28.10517607	     -4.69246648	    -10.95418526	      4.38992415	      6.24330357	    -15.45311323	     -5.06583315	    -51.91474000	    -12.62364577	     25.88158355	     18.46535823	      6.46710755	     10.49293321	     -9.60872261
      3.94500000	     -8.53886610	    -10.09606186	      9.59700641	     -0.93376045	     -0.05099136	      0.59515364	     34.57436181	      6.35732212	    -19.42228330	    -27.90495604	     -4.22331398	    -10.84245103	      4.51425037	      7.33540892	    -15.96598723	     -5.03484917	    -53.77398426	    -13.41485970	     24.38200437	     18.15444691	      6.37917031	     10.85226229	     -9.43853273
      3.95000000	     -8.51086580	    -10.37330928	      9.60382669	     -0.92731903	     -0.05008336	      0.59535417	     34.01503245	      6.76927616	    -19.57700275	    -27.63941593	     -3.74433333	    -10.59564094	      4.71670269	      8.56435579	    -16.42642651	     -4.81738718	    -55.59453933	    -13.93265733	     22.91836614	     17.68261182	      6.38972432	     11.19568013	     -9.40020621
